<svg width="22" height="23" viewBox="0 0 22 23" fill="none" xmlns="http://www.w3.org/2000/svg">
<path fill-rule="evenodd" clip-rule="evenodd" d="M5.391 6.91406H0.75V16.9141C0.75 20.5141 2.01 22.9141 7.05 22.9141H15.45C20.49 22.9141 21.75 20.5141 21.75 16.9141V6.91406H17.109C17.0117 7.37051 16.588 7.71406 16.08 7.71406H6.42C5.91202 7.71406 5.48829 7.37051 5.391 6.91406Z" fill="#4F4F4F"/>
<path fill-rule="evenodd" clip-rule="evenodd" d="M17.1085 6.51406H21.745C21.6597 2.78073 20.3186 0.914062 15.4495 0.914062H7.04946C2.18036 0.914062 0.839257 2.78073 0.753906 6.51406H5.39047C5.48775 6.05761 5.91148 5.71406 6.41946 5.71406H16.0795C16.5874 5.71406 17.0112 6.05761 17.1085 6.51406Z" fill="#4F4F4F"/>
</svg>
