<svg width="18" height="19" viewBox="0 0 18 19" fill="none" xmlns="http://www.w3.org/2000/svg">
<path d="M6.5852 9.38263C6.86804 9.79739 6.78348 9.45178 6.78348 17.7191C6.78348 18.459 7.61641 18.8824 8.20345 18.4399C10.712 16.5233 11.2131 16.3573 11.2131 15.4608C11.2131 9.43621 11.1438 9.77502 11.4114 9.38263L15.4849 3.76367H2.51172L6.5852 9.38263Z" fill="#D3D3D3"/>
<path d="M17.024 0.837553C16.8785 0.555034 16.593 0.379395 16.2787 0.379395H1.71856C1.03987 0.379395 0.640527 1.15523 1.02985 1.71895C1.03305 1.72437 0.985656 1.65864 1.73719 2.69512H16.2601C16.9005 1.81183 17.3286 1.4302 17.024 0.837553Z" fill="#D3D3D3"/>
</svg>
