<svg width="18" height="19" viewBox="0 0 18 19" fill="none" xmlns="http://www.w3.org/2000/svg">
<path d="M6.5852 9.3836C6.86804 9.79837 6.78348 9.45276 6.78348 17.7201C6.78348 18.4599 7.61641 18.8834 8.20345 18.4408C10.712 16.5242 11.2131 16.3583 11.2131 15.4618C11.2131 9.43719 11.1438 9.776 11.4114 9.3836L15.4849 3.76465H2.51172L6.5852 9.3836Z" fill="#2F80ED"/>
<path d="M17.024 0.838041C16.8785 0.555522 16.593 0.379883 16.2787 0.379883H1.71856C1.03987 0.379883 0.640527 1.15572 1.02985 1.71944C1.03305 1.72486 0.985656 1.65913 1.73719 2.69561H16.2601C16.9005 1.81232 17.3286 1.43069 17.024 0.838041Z" fill="#2F80ED"/>
</svg>
