<svg width="10" height="10" viewBox="0 0 10 10" fill="none" xmlns="http://www.w3.org/2000/svg">
<path d="M9.97497 3.61614C9.91305 3.42522 9.74416 3.29005 9.54513 3.272L6.83051 3.0249L5.75768 0.50658C5.67847 0.321561 5.49825 0.202148 5.29764 0.202148C5.09704 0.202148 4.91674 0.321561 4.83803 0.50658L3.7652 3.0249L1.05015 3.272C0.851128 3.29041 0.682594 3.42558 0.620318 3.61614C0.5584 3.80705 0.615583 4.01646 0.766108 4.14882L2.81814 5.95289L2.2131 8.62472C2.16883 8.82117 2.24488 9.02432 2.40746 9.14215C2.49485 9.20581 2.59752 9.23761 2.70055 9.23761C2.78908 9.23761 2.87769 9.21401 2.95683 9.16654L5.29764 7.76322L7.63803 9.16654C7.80972 9.2694 8.0256 9.25998 8.18782 9.14215C8.3504 9.02432 8.42645 8.82117 8.38218 8.62472L7.77714 5.95289L9.82918 4.14882C9.97963 4.01646 10.0369 3.80748 9.97497 3.61614Z" fill="#C7102D"/>
</svg>
