<svg width="58" height="58" viewBox="0 0 58 58" fill="none" xmlns="http://www.w3.org/2000/svg">
<g clip-path="url(#clip0)">
<path d="M56.7922 18.1253V51.9586C56.7934 52.3639 56.5944 52.7437 56.2606 52.9736L49.0106 57.8069C48.8058 57.9293 48.5726 57.9959 48.334 58.0003V21.5086L54.9073 17.1102C55.4601 16.7365 56.2113 16.8816 56.5851 17.4346C56.7228 17.6383 56.795 17.8793 56.7922 18.1253Z" fill="#1E88E5"/>
<path d="M48.3333 21.5083V57.9998C48.0947 57.9955 47.8615 57.9288 47.6567 57.8065L40.4067 52.9731C40.0728 52.7433 39.8738 52.3634 39.8751 51.9581V18.1251C39.8674 17.4578 40.4021 16.9106 41.0694 16.9029C41.3153 16.9001 41.5563 16.9724 41.7601 17.1101L48.3333 21.5083Z" fill="#64B5F6"/>
<path d="M56.2543 17.1195L49.0043 12.2861C48.5983 12.0153 48.069 12.0153 47.663 12.2861L40.4131 17.1195C39.8579 17.4897 39.7079 18.24 40.0781 18.7952C40.1666 18.9278 40.2804 19.0417 40.4131 19.1301L47.663 23.9635C48.069 24.2343 48.5983 24.2343 49.0043 23.9635L56.2543 19.1301C56.8094 18.7599 56.9594 18.0097 56.5892 17.4545C56.5008 17.3218 56.3869 17.208 56.2543 17.1195Z" fill="#2196F3"/>
<path d="M37.4582 6.04173V51.9582C37.4595 52.3635 37.2604 52.7433 36.9266 52.9732L29.6766 57.8065C29.4718 57.9289 29.2386 57.9955 29 57.9999V9.42509L35.5733 5.02674C36.1261 4.65302 36.8773 4.79814 37.2511 5.35106C37.3888 5.55485 37.461 5.7958 37.4582 6.04173Z" fill="#1E88E5"/>
<path d="M29.0013 9.42496V57.9998C28.7627 57.9955 28.5295 57.9287 28.3247 57.8064L21.0747 52.973C20.7407 52.7432 20.5418 52.3634 20.5431 51.958V6.0416C20.5353 5.37427 21.07 4.82712 21.7374 4.81942C21.9833 4.81658 22.2243 4.88886 22.428 5.02661L29.0013 9.42496Z" fill="#64B5F6"/>
<path d="M36.9203 5.03649L29.6703 0.203141C29.2643 -0.0677136 28.7351 -0.0677136 28.3291 0.203141L21.0791 5.03649C20.5239 5.40669 20.3739 6.15695 20.7441 6.71214C20.8326 6.84479 20.9464 6.95864 21.0791 7.04711L28.3291 11.8805C28.7351 12.1513 29.2643 12.1513 29.6703 11.8805L36.9203 7.04711C37.4755 6.67691 37.6255 5.92665 37.2553 5.37146C37.1668 5.23881 37.0529 5.12497 36.9203 5.03649Z" fill="#2196F3"/>
<path d="M18.1262 27.7917V51.9583C18.1274 52.3636 17.9284 52.7434 17.5946 52.9733L10.3446 57.8066C10.1398 57.929 9.90654 57.9956 9.66797 58V31.1751L16.2413 26.7767C16.7941 26.403 17.5453 26.5481 17.9191 27.1011C18.0566 27.3049 18.129 27.5458 18.1262 27.7917Z" fill="#1E88E5"/>
<path d="M9.66729 31.175V57.9999C9.42872 57.9955 9.19548 57.9288 8.99066 57.8065L1.74069 52.9731C1.40674 52.7433 1.20782 52.3635 1.20907 51.9581V27.7916C1.20136 27.1243 1.73605 26.5771 2.40339 26.5694C2.64932 26.5666 2.89027 26.6389 3.09406 26.7766L9.66729 31.175Z" fill="#64B5F6"/>
<path d="M17.5863 26.7865L10.3363 21.9531C9.93033 21.6823 9.40108 21.6823 8.99508 21.9531L1.74511 26.7865C1.18992 27.1567 1.03994 27.9069 1.41014 28.4621C1.49861 28.5948 1.61246 28.7086 1.74511 28.7971L8.99508 33.6305C9.40108 33.9013 9.93033 33.9013 10.3363 33.6305L17.5863 28.7971C18.1415 28.4269 18.2915 27.6766 17.9213 27.1215C17.8328 26.9888 17.719 26.875 17.5863 26.7865Z" fill="#2196F3"/>
</g>
<defs>
<clipPath id="clip0">
<rect width="58" height="58" fill="white"/>
</clipPath>
</defs>
</svg>
