<svg width="120" height="120" viewBox="0 0 120 120" fill="none" xmlns="http://www.w3.org/2000/svg">
<g clip-path="url(#clip0)">
<path d="M15.9327 30.036L65.979 7.25299C74.3074 3.46157 84.1321 7.13967 87.9234 15.4678L102.866 48.292C106.658 56.6203 102.98 66.4451 94.6514 70.2364L87.4691 73.5061C87.1274 73.6616 86.9765 74.0647 87.1321 74.4064L94.5031 90.5979C95.3745 92.5122 93.4554 94.5065 91.5091 93.7087L66.2977 83.3793C66.1241 83.3081 65.9289 83.312 65.7582 83.3897L44.6051 93.0194C36.2768 96.8107 26.4519 93.1327 22.6607 84.8046L7.71785 51.9804C3.92658 43.6522 7.60453 33.8272 15.9327 30.036Z" fill="#EC5569"/>
<path d="M77.945 71.0483C77.7812 70.6885 77.9166 70.2748 78.2474 70.1242L85.2007 66.9588C93.2632 63.2885 96.5627 53.2035 92.5702 44.4335L76.8347 9.86787C76.1591 8.38386 75.3175 7.03319 74.3473 5.82988C80.0765 6.35714 85.3697 9.85695 87.9241 15.4681L102.867 48.2923C106.658 56.6204 102.98 66.4454 94.6521 70.2367L87.4698 73.5064C87.1281 73.6619 86.9773 74.0651 87.1328 74.4067L94.5038 90.5981C95.3753 92.5125 93.4561 94.5068 91.5098 93.709L87.5163 92.0727L77.9452 71.0483L77.945 71.0483Z" fill="#E63950"/>
<path d="M32.9212 45.9283C35.0068 40.3568 41.2142 37.531 46.7859 39.6166L49.933 40.7947C50.6834 41.0756 51.5196 40.6949 51.8005 39.9446L52.9598 36.8477C55.0455 31.2762 61.2529 28.4503 66.8245 30.5359C72.396 32.6216 75.2218 38.829 73.1363 44.4006L64.4233 67.6758C64.1424 68.4261 63.3062 68.8068 62.5558 68.5259L39.2331 59.7929C33.6613 57.7072 30.8356 51.4999 32.9212 45.9283Z" fill="#EC5569"/>
<path d="M32.9212 45.9283C35.0068 40.3568 41.2142 37.531 46.7859 39.6166L49.933 40.7947C50.6834 41.0756 51.5196 40.6949 51.8005 39.9446L52.9598 36.8477C55.0455 31.2762 61.2529 28.4503 66.8245 30.5359C72.396 32.6216 75.2218 38.829 73.1363 44.4006L64.4233 67.6758C64.1424 68.4261 63.3062 68.8068 62.5558 68.5259L39.2331 59.7929C33.6613 57.7072 30.8356 51.4999 32.9212 45.9283Z" fill="#FFF5F5"/>
<path d="M68.0087 46.7349C70.0944 41.1634 67.2686 34.9561 61.697 32.8702C59.8694 32.1861 57.974 32.0334 56.1777 32.3299C59.0523 29.9528 63.0816 29.1341 66.8253 30.5357C72.3968 32.6213 75.2226 38.8287 73.137 44.4003L64.4241 67.6755C64.1432 68.4259 63.3069 68.8066 62.5566 68.5257L60.184 67.6373L68.0087 46.7349Z" fill="#DCE6EB"/>
</g>
<defs>
<clipPath id="clip0">
<rect width="90" height="90" fill="white" transform="matrix(-0.910129 0.414325 0.414325 0.910129 81.9121 0)"/>
</clipPath>
</defs>
</svg>
