<svg width="44" height="56" viewBox="0 0 44 56" fill="none" xmlns="http://www.w3.org/2000/svg">
<path d="M36.9939 14.8575L35.6527 14.184C35.7473 14.0104 35.7841 13.811 35.7574 13.6151C34.8518 7.95114 31.9546 2.81891 28.5475 0.842332C27.123 -0.126544 25.2923 -0.269813 23.7345 0.465565C21.9142 1.37801 20.697 3.51852 20.2736 6.49733L11.5588 2.13996L6.62362 4.60759L0.169922 7.83444V39.8657L32.4385 56L43.8275 50.3055V18.2742L36.9939 14.8575ZM24.5853 2.16271C25.5765 1.73618 26.7185 1.85867 27.5966 2.48567C30.3597 4.0881 32.8374 8.44733 33.7593 13.2358L22.0045 7.36253C22.0562 7.2664 22.0905 7.16206 22.1061 7.05401C22.3998 4.58725 23.3035 2.80447 24.5853 2.16271Z" fill="#FDD7AD"/>
<path d="M38.1339 21.1211V46.509L32.4395 55.9997V23.9683L38.1339 21.1211Z" fill="#F09372"/>
<path d="M43.8292 18.2739L32.4402 23.9684L11.5605 13.5285V2.13965L21.1652 6.94192L34.8224 13.7658L36.9957 14.8572L43.8292 18.2739Z" fill="#59474E"/>
<path d="M43.8312 18.2744V50.3057L38.1367 46.5095V21.1217L43.8312 18.2744Z" fill="#F0785A"/>
<path d="M6.81544 4.98703V10.6815L6.62569 11.0611L0.171875 7.83427L6.62569 4.60742L6.81544 4.98703Z" fill="#F09372"/>
<path d="M43.8284 50.306L32.4395 56.0005L38.1339 46.5098L43.8284 50.306Z" fill="#CC6F56"/>
<path d="M11.5602 2.13965V13.5285L6.625 11.0609L6.81475 10.6813V4.98678L6.625 4.60717L11.5602 2.13965Z" fill="#F09372"/>
<path d="M23.433 20.4088C22.9663 20.4083 22.569 20.0687 22.496 19.6076C22.4339 19.2132 22.3626 18.8184 22.2727 18.4333C21.9261 16.8193 21.3978 15.2498 20.698 13.7547C19.7859 11.495 18.2253 9.55587 16.2131 8.18158C14.994 7.26706 13.2761 7.44707 12.2731 8.59443C11.3583 9.79538 10.8181 11.2393 10.7197 12.7456C10.659 13.2662 10.1879 13.6391 9.66732 13.5784C9.14673 13.5177 8.7739 13.0465 8.8346 12.5259C8.96759 10.6318 9.67103 8.82224 10.8523 7.33563C12.477 5.49401 14.8367 5.19511 17.1612 6.53671C19.5121 8.10283 21.342 10.3351 22.4164 12.9476C23.1776 14.5663 23.7507 16.2668 24.1246 18.016C24.2219 18.4307 24.3025 18.871 24.3721 19.3117C24.415 19.586 24.3359 19.8654 24.1553 20.0764C23.9745 20.2875 23.7107 20.4089 23.433 20.4088Z" fill="#E6E7E8"/>
<path d="M34.8219 14.7142C34.356 14.714 33.9592 14.3754 33.8858 13.9153C33.0776 8.86358 30.4927 4.16368 27.5991 2.48556C26.721 1.85845 25.579 1.73596 24.5878 2.1626C23.306 2.80447 22.4024 4.58714 22.1085 7.0539C22.0452 7.5735 21.5732 7.94381 21.0535 7.88169C20.5338 7.81957 20.1624 7.34853 20.2233 6.82871C20.5997 3.67196 21.8481 1.41235 23.7369 0.465565C25.2949 -0.269813 27.1254 -0.126544 28.5499 0.842332C31.957 2.8188 34.8543 7.95114 35.7598 13.615C35.8426 14.1325 35.4903 14.6191 34.9729 14.7022C34.923 14.7103 34.8725 14.7143 34.8219 14.7142Z" fill="#B8B8B8"/>
</svg>
