<svg width="14" height="18" viewBox="0 0 14 18" fill="none" xmlns="http://www.w3.org/2000/svg">
<path d="M11.8059 0H2.19307C1.14317 0 0.289062 0.854179 0.289062 1.90408V16.096C0.289062 17.1459 1.14321 18 2.19311 18H11.8059C12.8558 18 13.71 17.1459 13.71 16.096V1.90408C13.7099 0.854179 12.8558 0 11.8059 0V0ZM6.99948 17.2807C6.67784 17.2807 6.41708 17.0199 6.41708 16.6983C6.41708 16.3766 6.67781 16.1159 6.99948 16.1159C7.32115 16.1159 7.58187 16.3766 7.58187 16.6983C7.58187 17.0199 7.32111 17.2807 6.99948 17.2807ZM11.1719 15.4906H2.82701C2.51481 15.4906 2.26175 15.2375 2.26175 14.9253C2.26175 14.6131 2.51481 14.3601 2.82701 14.3601H11.1719C11.4841 14.3601 11.7372 14.6131 11.7372 14.9253C11.7372 15.2375 11.4841 15.4906 11.1719 15.4906Z" fill="#D3D3D3"/>
</svg>
