<svg width="15" height="14" viewBox="0 0 15 14" fill="none" xmlns="http://www.w3.org/2000/svg">
<g clip-path="url(#clip0)">
<path d="M1.95832 2.3335H13.0416C13.8471 2.3335 14.5 2.98641 14.5 3.79182V10.2085C14.5 11.0139 13.8471 11.6668 13.0416 11.6668H1.95832C1.15291 11.6668 0.5 11.0139 0.5 10.2085V3.79185C0.5 2.98641 1.15291 2.3335 1.95832 2.3335Z" fill="#2196F3"/>
<path d="M14.5 4.0835H0.5V6.41682H14.5V4.0835Z" fill="#455A64"/>
<path d="M4.875 8.74986H2.54168C2.38059 8.74986 2.25 8.61926 2.25 8.45818C2.25 8.2971 2.38059 8.1665 2.54168 8.1665H4.875C5.03608 8.1665 5.16668 8.2971 5.16668 8.45818C5.16668 8.61926 5.03608 8.74986 4.875 8.74986Z" fill="#FAFAFA"/>
<path d="M6.625 9.91636H2.54168C2.38059 9.91636 2.25 9.78577 2.25 9.62468C2.25 9.4636 2.38059 9.33301 2.54168 9.33301H6.625C6.78608 9.33301 6.91668 9.4636 6.91668 9.62468C6.91668 9.78577 6.78608 9.91636 6.625 9.91636Z" fill="#FAFAFA"/>
</g>
<defs>
<clipPath id="clip0">
<rect width="14" height="14" fill="white" transform="translate(0.5)"/>
</clipPath>
</defs>
</svg>
