<svg width="14" height="26" viewBox="0 0 14 26" fill="none" xmlns="http://www.w3.org/2000/svg">
<path d="M12.5596 1.08512e-05H1.44038C1.23568 0.00117025 1.0336 0.0494858 0.84781 0.141689C0.662017 0.233893 0.496843 0.367835 0.363462 0.534455C0.13224 0.809734 0.00294878 1.16633 0 1.5369V24.4631C0.000352656 24.6656 0.0379088 24.8659 0.110519 25.0528C0.183129 25.2397 0.289369 25.4093 0.423156 25.5521C0.556944 25.6948 0.715654 25.8079 0.890202 25.8847C1.06475 25.9616 1.25171 26.0007 1.44038 26H12.5596C12.7483 26.0007 12.9353 25.9616 13.1098 25.8847C13.2843 25.8079 13.4431 25.6948 13.5768 25.5521C13.7106 25.4093 13.8169 25.2397 13.8895 25.0528C13.9621 24.8659 13.9996 24.6656 14 24.4631V1.5369C13.9996 1.33445 13.9621 1.13406 13.8895 0.947202C13.8169 0.760344 13.7106 0.590684 13.5768 0.447933C13.4431 0.305182 13.2843 0.192142 13.1098 0.115282C12.9353 0.0384217 12.7483 -0.000749167 12.5596 1.08512e-05ZM10.0262 1.88356C10.0999 1.88299 10.1721 1.90596 10.2336 1.94955C10.2951 1.99313 10.3431 2.05537 10.3716 2.12833C10.4 2.20129 10.4076 2.28169 10.3934 2.35929C10.3791 2.43689 10.3437 2.50819 10.2916 2.56412C10.2394 2.62005 10.173 2.65808 10.1007 2.67337C10.0283 2.68866 9.95342 2.68052 9.88542 2.64999C9.81742 2.61946 9.75942 2.56791 9.7188 2.50191C9.67818 2.43591 9.65678 2.35843 9.65731 2.27934C9.65731 2.17438 9.69617 2.07371 9.76534 1.99949C9.83451 1.92526 9.92833 1.88356 10.0262 1.88356ZM5.34962 1.86045H8.65038C8.75392 1.86045 8.85322 1.90459 8.92643 1.98314C8.99964 2.0617 9.04077 2.16825 9.04077 2.27934C9.04077 2.39044 8.99964 2.49698 8.92643 2.57554C8.85322 2.6541 8.75392 2.69823 8.65038 2.69823H5.34962C5.24608 2.69823 5.14678 2.6541 5.07357 2.57554C5.00036 2.49698 4.95923 2.39044 4.95923 2.27934C4.95923 2.16825 5.00036 2.0617 5.07357 1.98314C5.14678 1.90459 5.24608 1.86045 5.34962 1.86045ZM7 24.2262C6.79305 24.2268 6.59061 24.1614 6.41835 24.0383C6.2461 23.9152 6.11179 23.74 6.03248 23.5349C5.95316 23.3298 5.9324 23.1041 5.97285 22.8863C6.01329 22.6685 6.1131 22.4685 6.25962 22.3117C6.40615 22.1549 6.59278 22.0483 6.79584 22.0055C6.9989 21.9627 7.20925 21.9855 7.40019 22.0711C7.59113 22.1568 7.75406 22.3014 7.86831 22.4865C7.98256 22.6717 8.04299 22.889 8.04192 23.1111C8.04121 23.4071 7.93112 23.6907 7.7358 23.8998C7.54048 24.1088 7.27587 24.2262 7 24.2262Z" fill="#D3D3D3"/>
</svg>
