<svg width="148" height="148" viewBox="0 0 148 148" fill="none" xmlns="http://www.w3.org/2000/svg">
<g clip-path="url(#clip0)" filter="url(#filter0_f)">
<path d="M133 79.1652C133 80.3244 132.963 81.4768 132.892 82.6222C132.069 95.7036 126.582 107.884 117.232 117.234C107.884 126.582 95.7036 132.069 82.6222 132.892C81.4768 132.963 80.3244 133 79.1652 133C54.7643 133 34.5602 116.87 27.7937 95.3118C27.4641 94.2632 27.6531 93.1177 28.3053 92.2304C28.9552 91.3431 29.99 90.82 31.0917 90.82H51.5366C52.7995 90.82 53.9611 91.5091 54.5695 92.6153C59.4947 101.608 68.9185 107.195 79.1652 107.195C80.3359 107.195 81.4883 107.123 82.6222 106.98C95.3187 105.413 105.413 95.3187 106.98 82.6222C107.123 81.4883 107.195 80.3359 107.195 79.1652C107.195 68.9208 101.608 59.4947 92.6153 54.5695C91.5091 53.9611 90.82 52.7995 90.82 51.5366V31.0917C90.82 29.99 91.3431 28.9552 92.2304 28.3053C93.1177 27.6531 94.2632 27.4641 95.3118 27.7937C116.85 34.554 133 54.7435 133 79.1652Z" fill="#FAD557"/>
<path d="M132.892 82.6222C132.964 81.4768 133.001 80.3244 133.001 79.1652C133.001 54.7435 116.85 34.554 95.3121 27.7937C94.2635 27.4641 93.1181 27.6531 92.2308 28.3053C91.3435 28.9552 90.8203 29.99 90.8203 31.0917V51.5366C90.8203 52.7995 91.5094 53.9611 92.6157 54.5695C101.609 59.4947 107.195 68.9208 107.195 79.1652C107.195 80.3359 107.124 81.4883 106.981 82.6222C106.197 88.9705 103.282 94.6683 98.9752 98.9749L117.233 117.233C126.583 107.883 132.07 95.7031 132.892 82.6222Z" fill="#FCB12B"/>
<path d="M79.1639 15C62.0253 15 45.9123 21.6741 33.7931 33.7933C21.6741 45.9123 15 62.0253 15 79.1639C15 81.0731 16.5478 82.6209 18.457 82.6209H79.1639C81.0731 82.6209 82.6209 81.0731 82.6209 79.1639V18.457C82.6209 16.5478 81.0731 15 79.1639 15Z" fill="#7FECA0"/>
<path d="M82.6222 106.98V132.892C81.4768 132.963 80.3244 133 79.1652 133C54.7643 133 34.5602 116.87 27.7937 95.3117C27.4641 94.263 27.6531 93.1176 28.3053 92.2303C28.9552 91.343 29.99 90.8198 31.0917 90.8198H51.5366C52.7995 90.8198 53.9611 91.5089 54.5695 92.6152C59.4947 101.608 68.9185 107.195 79.1652 107.195C80.3359 107.195 81.4883 107.123 82.6222 106.98Z" fill="#72A3FC"/>
<path d="M82.6205 18.457C82.6205 16.5478 81.0727 15 79.1635 15C62.0249 15 45.9119 21.6741 33.793 33.7933L81.6081 81.6085C82.2336 80.983 82.6205 80.1187 82.6205 79.1641V18.457Z" fill="#3AD475"/>
<path d="M92.6157 54.5695C101.609 59.4947 107.195 68.9208 107.195 79.1652C107.195 80.3359 107.124 81.4883 106.981 82.6222H132.892C132.964 81.4768 133.001 80.3244 133.001 79.1652C133.001 54.7435 116.85 34.554 95.3121 27.7937C94.2635 27.4641 93.1181 27.6531 92.2308 28.3053C91.3435 28.9552 90.8203 29.99 90.8203 31.0917V51.5366C90.8203 52.7995 91.5094 53.9611 92.6157 54.5695Z" fill="#FC495C"/>
</g>
<defs>
<filter id="filter0_f" x="0" y="0" width="148" height="148" filterUnits="userSpaceOnUse" color-interpolation-filters="sRGB">
<feFlood flood-opacity="0" result="BackgroundImageFix"/>
<feBlend mode="normal" in="SourceGraphic" in2="BackgroundImageFix" result="shape"/>
<feGaussianBlur stdDeviation="7.5" result="effect1_foregroundBlur"/>
</filter>
<clipPath id="clip0">
<rect width="118" height="118" fill="white" transform="translate(15 15)"/>
</clipPath>
</defs>
</svg>
