<svg width="18" height="18" viewBox="0 0 18 18" fill="none" xmlns="http://www.w3.org/2000/svg">
<g clip-path="url(#clip0)">
<path d="M5.95117 9.52731H12.2793C12.5708 9.52731 12.8066 9.29138 12.8066 8.99996V2.63671C12.8066 2.3453 12.5708 2.10937 12.2793 2.10937H10.6972V1.58203C10.6972 0.709714 9.98753 0 9.11522 0C8.24291 0 7.53319 0.709714 7.53319 1.58203V2.10937H5.95117C5.65976 2.10937 5.42383 2.3453 5.42383 2.63671V8.99996C5.42383 9.29138 5.65976 9.52731 5.95117 9.52731ZM8.58788 1.58203C8.58788 1.29103 8.82477 1.05468 9.11522 1.05468C9.40567 1.05468 9.64256 1.29103 9.64256 1.58203V2.10937H8.58788V1.58203Z" fill="#D3D3D3"/>
<path d="M16.7982 8.72699C16.7034 8.56947 16.5313 8.47266 16.347 8.47266C15.4179 8.47266 14.5655 8.98833 14.1341 9.81134L12.5165 12.8985C12.2416 13.4217 11.7049 13.7461 11.1148 13.7461H7.53358C7.24216 13.7461 7.00623 13.5102 7.00623 13.2187C7.00623 12.9273 7.24216 12.6914 7.53358 12.6914H11.1147C11.3115 12.6914 11.4907 12.5833 11.5824 12.4086C11.6738 12.2342 11.9496 11.7076 12.1868 11.2549C12.2615 11.1124 12.2563 10.9411 12.1729 10.8034C12.0894 10.6658 11.9402 10.582 11.7792 10.582H6.29762C5.59312 10.582 4.93189 10.8565 4.43338 11.3545L1.31465 14.4732C1.10866 14.6792 1.10866 15.0129 1.31465 15.2189L3.95136 17.8455C4.05436 17.9485 4.18935 18.0001 4.32421 18.0001C4.45906 18.0001 4.59406 17.9485 4.69705 17.8455L6.69724 15.8555H11.1147C12.4918 15.8555 13.7452 15.0974 14.3849 13.8774L16.8136 9.24513C16.9001 9.08185 16.8939 8.88519 16.7982 8.72699Z" fill="#D3D3D3"/>
</g>
<defs>
<clipPath id="clip0">
<rect width="18" height="18" fill="white"/>
</clipPath>
</defs>
</svg>
