<svg width="18" height="17" viewBox="0 0 18 17" fill="none" xmlns="http://www.w3.org/2000/svg">
<path fill-rule="evenodd" clip-rule="evenodd" d="M9.63702 1.89199C9.36655 1.70886 9.04857 1.61111 8.72329 1.61111C8.28709 1.61111 7.86877 1.7867 7.56033 2.09927C7.2519 2.41183 7.07862 2.83575 7.07862 3.27778C7.07862 3.60741 7.17508 3.92965 7.35579 4.20373C7.53651 4.47781 7.79337 4.69143 8.0939 4.81758C8.39442 4.94372 8.72511 4.97673 9.04414 4.91242C9.36317 4.84811 9.65623 4.68938 9.88624 4.45629C10.1162 4.2232 10.2729 3.92623 10.3363 3.60293C10.3998 3.27962 10.3672 2.94451 10.2428 2.63997C10.1183 2.33543 9.90748 2.07513 9.63702 1.89199ZM7.20041 0.96814C7.65118 0.662914 8.18115 0.5 8.72329 0.5C9.45027 0.5 10.1475 0.792656 10.6615 1.31359C11.1756 1.83452 11.4644 2.54107 11.4644 3.27778C11.4644 3.82717 11.3036 4.36422 11.0024 4.82103C10.7012 5.27783 10.2731 5.63387 9.77226 5.84411C9.63035 5.90368 9.48439 5.95079 9.33599 5.98528V16.4999H8.17505V5.99943C7.64855 5.89052 7.16514 5.62716 6.78503 5.24197C6.40168 4.85349 6.14061 4.35853 6.03485 3.81969C5.92908 3.28086 5.98337 2.72234 6.19083 2.21477C6.3983 1.70719 6.74964 1.27337 7.20041 0.96814ZM2.74111 6.05567C3.06639 6.05567 3.38438 6.15341 3.65484 6.33655C3.9253 6.51968 4.1361 6.77998 4.26058 7.08452C4.38506 7.38907 4.41763 7.72418 4.35417 8.04748C4.29071 8.37078 4.13407 8.66776 3.90406 8.90084C3.67405 9.13393 3.381 9.29266 3.06196 9.35697C2.74293 9.42128 2.41224 9.38828 2.11172 9.26213C1.8112 9.13598 1.55434 8.92237 1.37362 8.64829C1.1929 8.3742 1.09645 8.05197 1.09645 7.72233C1.09645 7.2803 1.26972 6.85638 1.57816 6.54382C1.88659 6.23126 2.30492 6.05567 2.74111 6.05567ZM3.35377 0.5V5.01482C3.8518 5.13056 4.31228 5.38615 4.67937 5.75814C5.19342 6.27908 5.48221 6.98562 5.48221 7.72233C5.48221 8.27172 5.32145 8.80878 5.02026 9.26558C4.71906 9.72238 4.29096 10.0784 3.79009 10.2887C3.64816 10.3482 3.50219 10.3954 3.35377 10.4298V16.5046H2.19283V10.444C1.66635 10.3351 1.18295 10.0717 0.802853 9.68652C0.419502 9.29804 0.158437 8.80308 0.0526705 8.26425C-0.0530956 7.72541 0.00118845 7.16689 0.208656 6.65932C0.416124 6.15175 0.767462 5.71792 1.21823 5.41269C1.51513 5.21166 1.84638 5.07236 2.19283 5.00069V0.5H3.35377ZM15.3181 0.5H14.1572V6.66746C13.8107 6.73914 13.4795 6.87843 13.1826 7.07947C12.7318 7.38469 12.3805 7.81852 12.173 8.32609C11.9655 8.83366 11.9113 9.39218 12.017 9.93102C12.1228 10.4699 12.3839 10.9648 12.7672 11.3533C13.1473 11.7385 13.6307 12.0018 14.1572 12.1107V16.5013H15.3181V12.0966C15.4665 12.0621 15.6125 12.015 15.7544 11.9554C16.2553 11.7452 16.6834 11.3892 16.9846 10.9324C17.2858 10.4755 17.4466 9.9385 17.4466 9.3891C17.4466 8.65239 17.1578 7.94585 16.6437 7.42492C16.2766 7.05292 15.8162 6.79733 15.3181 6.68159V0.5ZM15.6192 8.00332C15.3487 7.82018 15.0307 7.72244 14.7055 7.72244C14.2693 7.72244 13.8509 7.89803 13.5425 8.21059C13.2341 8.52315 13.0608 8.94708 13.0608 9.3891C13.0608 9.71874 13.1573 10.041 13.338 10.3151C13.5187 10.5891 13.7756 10.8028 14.0761 10.9289C14.3766 11.055 14.7073 11.0881 15.0263 11.0237C15.3454 10.9594 15.6384 10.8007 15.8684 10.5676C16.0984 10.3345 16.2551 10.0376 16.3185 9.71425C16.382 9.39095 16.3494 9.05584 16.2249 8.7513C16.1005 8.44675 15.8897 8.18645 15.6192 8.00332Z" fill="#D3D3D3"/>
</svg>
