<svg width="18" height="18" viewBox="0 0 18 18" fill="none" xmlns="http://www.w3.org/2000/svg">
<g clip-path="url(#clip0)">
<path d="M7.52134 4.04492H2.71353C1.33143 4.04492 0.207031 5.16932 0.207031 6.55138V11.3592C0.207031 12.7413 1.33143 13.8657 2.71353 13.8657H7.52134C8.90344 13.8657 10.0278 12.7413 10.0278 11.3592V6.55138C10.0278 5.16932 8.90344 4.04492 7.52134 4.04492Z" fill="#4F4F4F"/>
<path d="M12.1051 2.31239C11.5725 2.31239 11.0291 2.61306 10.5273 3.17443C11.3685 4.47283 12.0243 6.44235 12.0501 8.85594C12.472 12.5864 17.7898 12.3745 17.7898 8.35818C17.7898 8.3443 17.7909 8.33071 17.7919 8.31709C17.6939 6.21866 17.1455 4.26052 16.2227 2.74388C15.553 1.6434 14.7343 0.850605 13.8313 0.408203C13.9314 1.43395 13.1223 2.31239 12.1051 2.31239ZM14.9298 8.67124C15.4614 8.67124 15.8923 9.10219 15.8923 9.63378C15.8923 10.1653 15.4614 10.5963 14.9298 10.5963C14.3982 10.5963 13.9672 10.1653 13.9672 9.63378C13.9673 9.10219 14.3982 8.67124 14.9298 8.67124Z" fill="#4F4F4F"/>
<path d="M11.8497 11.293C11.6263 12.5324 11.2011 13.7851 10.5273 14.8252C11.0291 15.3865 11.5724 15.6872 12.1051 15.6872C13.1235 15.6872 13.9313 16.5668 13.8314 17.5914C15.9151 16.5704 17.1073 13.973 17.5527 11.6903C15.9446 13.0972 13.3076 13.0169 11.8497 11.293Z" fill="#4F4F4F"/>
<path d="M7.5225 2.88877C8.06819 2.88877 8.5863 3.00889 9.05201 3.2238C9.90006 1.8893 10.9804 1.15642 12.1059 1.15642C12.4252 1.15642 12.6841 0.897561 12.6841 0.578209C12.6841 0.258857 12.4252 0 12.1059 0H7.50606C5.66248 0 4.22794 1.30007 3.30273 2.88877H7.5225Z" fill="#4F4F4F"/>
<path d="M12.1059 16.8437C10.9612 16.8437 9.86323 16.0852 9.00882 14.707C8.55431 14.9096 8.05134 15.0225 7.52246 15.0225H3.25195C4.17759 16.6546 5.63121 18.0001 7.50602 18.0001H12.1058C12.4252 18.0001 12.6841 17.7412 12.6841 17.4219C12.6841 17.1025 12.4252 16.8437 12.1059 16.8437Z" fill="#4F4F4F"/>
</g>
<defs>
<clipPath id="clip0">
<rect width="18" height="18" fill="white"/>
</clipPath>
</defs>
</svg>
