<svg width="24" height="21" viewBox="0 0 24 21" fill="none" xmlns="http://www.w3.org/2000/svg">
<path d="M23.8495 2.89685C22.9733 3.29006 22.0304 3.55529 21.041 3.67399C22.0512 3.06341 22.8258 2.09626 23.191 0.942515C22.2462 1.50864 21.2002 1.91944 20.0859 2.1412C19.1943 1.18186 17.9233 0.582031 16.5169 0.582031C13.8168 0.582031 11.6275 2.79232 11.6275 5.5189C11.6275 5.90528 11.6706 6.28188 11.7543 6.64383C7.69028 6.4377 4.08688 4.47262 1.67509 1.48568C1.25418 2.21447 1.01324 3.06243 1.01324 3.96804C1.01324 5.68058 1.87635 7.19188 3.18844 8.07697C2.38726 8.05109 1.633 7.82884 0.973566 7.45907C0.973082 7.47959 0.973083 7.50059 0.973083 7.52159C0.973083 9.9131 2.65867 11.908 4.8958 12.3622C4.48553 12.4746 4.05349 12.5352 3.60742 12.5352C3.29198 12.5352 2.98573 12.5044 2.68722 12.4463C3.30988 14.4074 5.11545 15.8352 7.25486 15.8748C5.58136 17.199 3.47341 17.9883 1.18209 17.9883C0.787784 17.9883 0.398318 17.9649 0.015625 17.919C2.18019 19.3204 4.75018 20.1371 7.51127 20.1371C16.5058 20.1371 21.4237 12.6148 21.4237 6.09089C21.4237 5.87695 21.4193 5.66349 21.4101 5.4515C22.3652 4.75691 23.1944 3.88696 23.8495 2.89685Z" fill="#1E266D"/>
</svg>
