<svg width="22" height="22" viewBox="0 0 22 22" fill="none" xmlns="http://www.w3.org/2000/svg">
<path d="M17.3785 0.0449219H4.50322C2.26675 0.0449219 0.447266 1.86398 0.447266 4.10045V8.38458V16.9761C0.447266 19.2126 2.26675 21.0316 4.50322 21.0316H17.3789C19.6153 21.0316 21.4344 19.2126 21.4344 16.9761V8.38415V4.10003C21.434 1.86356 19.6149 0.0449219 17.3785 0.0449219ZM18.5418 2.46342L19.0057 2.46173V2.92358V6.01899L15.4603 6.03042L15.4481 2.47358L18.5418 2.46342ZM7.94533 8.38415C8.61759 7.45409 9.70809 6.84407 10.9408 6.84407C12.1736 6.84407 13.2641 7.45409 13.9355 8.38415C14.3728 8.99121 14.6348 9.73374 14.6348 10.5381C14.6348 12.5747 12.9762 14.2316 10.9404 14.2316C8.90333 14.2316 7.24641 12.5747 7.24641 10.5381C7.24683 9.73374 7.50803 8.99121 7.94533 8.38415ZM19.3893 16.9757C19.3893 18.0852 18.4872 18.9865 17.3785 18.9865H4.50322C3.39408 18.9865 2.49196 18.0852 2.49196 16.9757V8.38415H5.62462C5.35411 9.04963 5.20214 9.77649 5.20214 10.5381C5.20214 13.7016 7.776 16.2772 10.9408 16.2772C14.1052 16.2772 16.6791 13.7016 16.6791 10.5381C16.6791 9.77649 16.5263 9.04963 16.2558 8.38415H19.3893V16.9757Z" fill="#1E266D"/>
</svg>
