<svg width="30" height="30" viewBox="0 0 30 30" fill="none" xmlns="http://www.w3.org/2000/svg">
<g clip-path="url(#clip0)">
<path d="M14.9981 15.0371C22.5087 15.0371 28.6191 21.1477 28.6191 28.6581C28.6191 28.9851 28.3538 29.2504 28.0269 29.2504H1.96926C1.64235 29.2504 1.37702 28.9851 1.37702 28.6581C1.37702 21.1476 7.48756 15.0371 14.9981 15.0371Z" fill="#2F80ED"/>
<path d="M14.9993 13.7788C11.4015 13.7788 8.48487 10.8622 8.48487 7.2644C8.48487 3.6666 11.4015 0.75 14.9993 0.75C18.5971 0.75 21.5137 3.6666 21.5137 7.2644C21.5137 10.8622 18.5971 13.7788 14.9993 13.7788Z" fill="#2F80ED"/>
</g>
<defs>
<clipPath id="clip0">
<rect width="28.5" height="28.5" fill="white" transform="matrix(-1 0 0 1 29.25 0.75)"/>
</clipPath>
</defs>
</svg>
